<mxfile host="app.diagrams.net" modified="2022-03-25T05:53:00.517Z" agent="5.0 (Windows NT 10.0; Win64; x64) AppleWebKit/537.36 (KHTML, like Gecko) Chrome/99.0.4844.82 Safari/537.36" etag="ANneC6a92mi_V_mfEUYW" version="17.2.2" type="github">
  <diagram name="Page-1" id="e3a06f82-3646-2815-327d-82caf3d4e204">
    <mxGraphModel dx="1422" dy="762" grid="1" gridSize="10" guides="1" tooltips="1" connect="1" arrows="1" fold="1" page="1" pageScale="1.5" pageWidth="1169" pageHeight="826" background="none" math="0" shadow="0">
      <root>
        <mxCell id="0" style=";html=1;" />
        <mxCell id="1" style=";html=1;" parent="0" />
        <mxCell id="6a7d8f32e03d9370-61" value="Outside Networks" style="whiteSpace=wrap;html=1;fillColor=#f8cecc;fontSize=14;strokeColor=none;verticalAlign=top;" parent="1" vertex="1">
          <mxGeometry x="974.5" y="120" width="335.5" height="210" as="geometry" />
        </mxCell>
        <mxCell id="6a7d8f32e03d9370-60" value="&lt;b&gt;&lt;font style=&quot;font-size: 20px&quot;&gt;Sender&lt;/font&gt;&lt;/b&gt;" style="whiteSpace=wrap;html=1;fillColor=#d5e8d4;fontSize=14;strokeColor=none;verticalAlign=top;" parent="1" vertex="1">
          <mxGeometry x="937.5" y="750" width="372.5" height="374" as="geometry" />
        </mxCell>
        <mxCell id="6a7d8f32e03d9370-58" value="&lt;b&gt;&lt;font style=&quot;font-size: 20px&quot;&gt;Private Networks&lt;/font&gt;&lt;/b&gt;" style="whiteSpace=wrap;html=1;fillColor=#dae8fc;fontSize=14;strokeColor=none;verticalAlign=top;" parent="1" vertex="1">
          <mxGeometry x="310" y="544.25" width="603" height="375.75" as="geometry" />
        </mxCell>
        <mxCell id="6a7d8f32e03d9370-1" value="Client" style="verticalLabelPosition=bottom;aspect=fixed;html=1;verticalAlign=top;strokeColor=none;shape=mxgraph.citrix.laptop_2;fillColor=#66B2FF;gradientColor=#0066CC;fontSize=14;" parent="1" vertex="1">
          <mxGeometry x="349.9999999999999" y="487.5" width="116" height="86.5" as="geometry" />
        </mxCell>
        <mxCell id="GSLYbqBXelkynNaqKEPV-5" style="edgeStyle=none;rounded=0;orthogonalLoop=1;jettySize=auto;html=1;entryX=1.014;entryY=0.795;entryDx=0;entryDy=0;entryPerimeter=0;startArrow=none;startFill=0;endArrow=block;strokeColor=#7EA6E0;strokeWidth=2;" edge="1" parent="1" source="6a7d8f32e03d9370-13" target="6a7d8f32e03d9370-15">
          <mxGeometry relative="1" as="geometry" />
        </mxCell>
        <mxCell id="GSLYbqBXelkynNaqKEPV-13" style="edgeStyle=none;rounded=0;orthogonalLoop=1;jettySize=auto;html=1;entryX=0;entryY=0.25;entryDx=0;entryDy=0;startArrow=none;startFill=0;endArrow=block;strokeColor=#FF00FF;strokeWidth=2;" edge="1" parent="1" source="6a7d8f32e03d9370-13" target="GSLYbqBXelkynNaqKEPV-11">
          <mxGeometry relative="1" as="geometry" />
        </mxCell>
        <mxCell id="6a7d8f32e03d9370-13" value="" style="verticalLabelPosition=bottom;aspect=fixed;html=1;verticalAlign=top;strokeColor=none;shape=mxgraph.citrix.router;fillColor=#66B2FF;gradientColor=#0066CC;fontSize=14;" parent="1" vertex="1">
          <mxGeometry x="882" y="650" width="64.04" height="42.5" as="geometry" />
        </mxCell>
        <mxCell id="GSLYbqBXelkynNaqKEPV-6" style="edgeStyle=none;rounded=0;orthogonalLoop=1;jettySize=auto;html=1;entryX=0.036;entryY=0.384;entryDx=0;entryDy=0;entryPerimeter=0;startArrow=none;startFill=0;endArrow=block;strokeColor=#FF00FF;strokeWidth=2;" edge="1" parent="1" source="6a7d8f32e03d9370-15" target="6a7d8f32e03d9370-13">
          <mxGeometry relative="1" as="geometry" />
        </mxCell>
        <mxCell id="6a7d8f32e03d9370-15" value="Flask&lt;br&gt;Web Server" style="verticalLabelPosition=top;aspect=fixed;html=1;verticalAlign=bottom;strokeColor=none;shape=mxgraph.citrix.cache_server;fillColor=#66B2FF;gradientColor=#0066CC;fontSize=14;labelPosition=center;align=center;" parent="1" vertex="1">
          <mxGeometry x="630" y="630" width="80" height="109.86" as="geometry" />
        </mxCell>
        <mxCell id="6a7d8f32e03d9370-49" value="HTTPS" style="edgeStyle=none;rounded=0;html=1;jettySize=auto;orthogonalLoop=1;fontSize=14;endArrow=block;endFill=0;strokeWidth=2;entryX=0.159;entryY=0.808;entryDx=0;entryDy=0;entryPerimeter=0;strokeColor=#7EA6E0;startArrow=none;startFill=0;" parent="1" source="6a7d8f32e03d9370-30" target="GSLYbqBXelkynNaqKEPV-1" edge="1">
          <mxGeometry relative="1" as="geometry">
            <Array as="points" />
          </mxGeometry>
        </mxCell>
        <mxCell id="6a7d8f32e03d9370-62" value="Citrix Network Architecture" style="text;strokeColor=none;fillColor=none;html=1;fontSize=24;fontStyle=1;verticalAlign=middle;align=center;" parent="1" vertex="1">
          <mxGeometry x="499" y="30" width="861" height="40" as="geometry" />
        </mxCell>
        <mxCell id="GSLYbqBXelkynNaqKEPV-4" style="rounded=0;orthogonalLoop=1;jettySize=auto;html=1;entryX=0.25;entryY=1;entryDx=0;entryDy=0;startArrow=none;startFill=0;endArrow=block;strokeColor=#7EA6E0;strokeWidth=2;" edge="1" parent="1" source="GSLYbqBXelkynNaqKEPV-1" target="GSLYbqBXelkynNaqKEPV-11">
          <mxGeometry relative="1" as="geometry" />
        </mxCell>
        <mxCell id="GSLYbqBXelkynNaqKEPV-21" value="HTTP" style="edgeLabel;html=1;align=center;verticalAlign=middle;resizable=0;points=[];" vertex="1" connectable="0" parent="GSLYbqBXelkynNaqKEPV-4">
          <mxGeometry x="-0.5388" relative="1" as="geometry">
            <mxPoint as="offset" />
          </mxGeometry>
        </mxCell>
        <mxCell id="GSLYbqBXelkynNaqKEPV-1" value="ngrok" style="verticalLabelPosition=bottom;aspect=fixed;html=1;verticalAlign=top;strokeColor=none;shape=mxgraph.citrix.web_service;fillColor=#66B2FF;gradientColor=#0066CC;fontSize=14;" vertex="1" parent="1">
          <mxGeometry x="1140" y="860" width="63" height="60" as="geometry" />
        </mxCell>
        <mxCell id="GSLYbqBXelkynNaqKEPV-7" value="" style="shape=image;html=1;verticalAlign=top;verticalLabelPosition=bottom;labelBackgroundColor=#ffffff;imageAspect=0;aspect=fixed;image=https://cdn0.iconfinder.com/data/icons/business-startup-10/50/18-128.png;strokeColor=default;" vertex="1" parent="1">
          <mxGeometry x="970" y="920" width="65" height="65" as="geometry" />
        </mxCell>
        <mxCell id="6a7d8f32e03d9370-30" value="TradingView" style="verticalLabelPosition=bottom;aspect=fixed;html=1;verticalAlign=top;strokeColor=none;shape=mxgraph.citrix.web_service;fillColor=#66B2FF;gradientColor=#0066CC;fontSize=14;" parent="1" vertex="1">
          <mxGeometry x="1021" y="950" width="63" height="60" as="geometry" />
        </mxCell>
        <mxCell id="GSLYbqBXelkynNaqKEPV-8" value="&lt;b&gt;Third Party Code Sources&lt;/b&gt;&lt;br&gt;&lt;br&gt;&lt;b&gt;CCTX&lt;/b&gt;&lt;br&gt;https://github.com/ccxt/ccxt&lt;br&gt;&lt;br&gt;&lt;b&gt;hacking the market&lt;/b&gt;&lt;br&gt;&lt;span style=&quot;color: rgb(51 , 51 , 51) ; font-family: , &amp;#34;meiryo&amp;#34; , &amp;#34;verdana&amp;#34; , &amp;#34;ヒラギノ角ゴ pro w3&amp;#34; , &amp;#34;hiragino kaku gothic pro&amp;#34; , &amp;#34;osaka&amp;#34; , &amp;#34;ｍｓ ｐゴシック&amp;#34; , &amp;#34;ms pgothic&amp;#34; , sans-serif ; background-color: rgb(255 , 255 , 255)&quot;&gt;https://github.com/hackingthemarkets/tradingview-binance-strategy-alert-webhook&lt;/span&gt;&lt;br&gt;&lt;br&gt;&lt;b&gt;Documents&lt;/b&gt;&lt;br&gt;CCTX&amp;nbsp;&lt;br&gt;Binance API&lt;br&gt;BIT GET API&lt;br&gt;TradingView&lt;br&gt;&lt;br&gt;&lt;br&gt;&lt;b&gt;環境構築&lt;br&gt;&lt;i&gt;TradingView 登録 / Webhook送信&lt;br&gt;&lt;/i&gt;Binance 登録 / 現物・先物のAPI取得&lt;br&gt;BIT GET 登録/ 現物・先物のAPI取得&lt;br&gt;&lt;br&gt;&lt;/b&gt;" style="whiteSpace=wrap;html=1;fillColor=#f8cecc;fontSize=14;strokeColor=none;verticalAlign=top;align=left;" vertex="1" parent="1">
          <mxGeometry x="570" y="120" width="340" height="390" as="geometry" />
        </mxCell>
        <mxCell id="GSLYbqBXelkynNaqKEPV-9" value="Binance&lt;br&gt;- 現物&lt;br&gt;- 先物" style="shape=image;html=1;verticalAlign=top;verticalLabelPosition=bottom;labelBackgroundColor=#ffffff;imageAspect=0;aspect=fixed;image=https://cdn4.iconfinder.com/data/icons/essential-app-2/16/cash-money-coin-value-128.png;strokeColor=default;" vertex="1" parent="1">
          <mxGeometry x="1008.5" y="170" width="88" height="88" as="geometry" />
        </mxCell>
        <mxCell id="GSLYbqBXelkynNaqKEPV-10" value="BITGET&lt;br&gt;- 現物&lt;br&gt;- 先物" style="shape=image;html=1;verticalAlign=top;verticalLabelPosition=bottom;labelBackgroundColor=#ffffff;imageAspect=0;aspect=fixed;image=https://cdn4.iconfinder.com/data/icons/essential-app-2/16/cash-money-coin-value-128.png;strokeColor=default;" vertex="1" parent="1">
          <mxGeometry x="1203" y="170" width="88" height="88" as="geometry" />
        </mxCell>
        <mxCell id="GSLYbqBXelkynNaqKEPV-14" style="edgeStyle=none;rounded=0;orthogonalLoop=1;jettySize=auto;html=1;exitX=0.25;exitY=0;exitDx=0;exitDy=0;entryX=1;entryY=1;entryDx=0;entryDy=0;startArrow=none;startFill=0;endArrow=block;strokeColor=#FF00FF;strokeWidth=2;" edge="1" parent="1" source="GSLYbqBXelkynNaqKEPV-11" target="GSLYbqBXelkynNaqKEPV-9">
          <mxGeometry relative="1" as="geometry" />
        </mxCell>
        <mxCell id="GSLYbqBXelkynNaqKEPV-15" style="edgeStyle=none;rounded=0;orthogonalLoop=1;jettySize=auto;html=1;exitX=0.5;exitY=0;exitDx=0;exitDy=0;startArrow=none;startFill=0;endArrow=block;strokeColor=#FF00FF;strokeWidth=2;entryX=0;entryY=1;entryDx=0;entryDy=0;" edge="1" parent="1" source="GSLYbqBXelkynNaqKEPV-11" target="GSLYbqBXelkynNaqKEPV-10">
          <mxGeometry relative="1" as="geometry" />
        </mxCell>
        <mxCell id="GSLYbqBXelkynNaqKEPV-11" value="" style="aspect=fixed;perimeter=ellipsePerimeter;html=1;align=center;shadow=0;dashed=0;spacingTop=3;image;image=img/lib/active_directory/internet_cloud.svg;strokeColor=default;" vertex="1" parent="1">
          <mxGeometry x="1120" y="574" width="145.24" height="91.5" as="geometry" />
        </mxCell>
        <mxCell id="GSLYbqBXelkynNaqKEPV-12" style="rounded=0;orthogonalLoop=1;jettySize=auto;html=1;entryX=1.018;entryY=0.548;entryDx=0;entryDy=0;startArrow=none;startFill=0;endArrow=block;strokeColor=#7EA6E0;strokeWidth=2;entryPerimeter=0;exitX=0.14;exitY=1.079;exitDx=0;exitDy=0;exitPerimeter=0;" edge="1" parent="1" source="GSLYbqBXelkynNaqKEPV-11" target="6a7d8f32e03d9370-13">
          <mxGeometry relative="1" as="geometry">
            <mxPoint x="1168.6297121750831" y="870" as="sourcePoint" />
            <mxPoint x="1082.7482776657803" y="669.8146529177748" as="targetPoint" />
          </mxGeometry>
        </mxCell>
        <mxCell id="GSLYbqBXelkynNaqKEPV-16" style="edgeStyle=none;rounded=0;orthogonalLoop=1;jettySize=auto;html=1;exitX=1;exitY=0.5;exitDx=0;exitDy=0;startArrow=none;startFill=0;endArrow=block;strokeColor=#FF00FF;strokeWidth=2;" edge="1" parent="1" source="6a7d8f32e03d9370-61" target="6a7d8f32e03d9370-61">
          <mxGeometry relative="1" as="geometry" />
        </mxCell>
        <mxCell id="GSLYbqBXelkynNaqKEPV-17" style="edgeStyle=none;rounded=0;orthogonalLoop=1;jettySize=auto;html=1;exitX=1;exitY=0.5;exitDx=0;exitDy=0;startArrow=none;startFill=0;endArrow=block;strokeColor=#FF00FF;strokeWidth=2;" edge="1" parent="1" source="6a7d8f32e03d9370-61" target="6a7d8f32e03d9370-61">
          <mxGeometry relative="1" as="geometry" />
        </mxCell>
        <mxCell id="GSLYbqBXelkynNaqKEPV-18" value="WEBHOOKにて注文情報を出す&lt;br&gt;JSON形式を想定&lt;br&gt;&lt;br&gt;- 必要なJSON形式の情報の定義" style="text;html=1;resizable=0;autosize=1;align=left;verticalAlign=middle;points=[];fillColor=none;strokeColor=none;rounded=0;" vertex="1" parent="1">
          <mxGeometry x="974.5" y="1040" width="190" height="60" as="geometry" />
        </mxCell>
        <mxCell id="GSLYbqBXelkynNaqKEPV-19" value="HTTPSにて代行受付" style="text;html=1;resizable=0;autosize=1;align=center;verticalAlign=middle;points=[];fillColor=none;strokeColor=none;rounded=0;" vertex="1" parent="1">
          <mxGeometry x="1106.5" y="950" width="130" height="20" as="geometry" />
        </mxCell>
        <mxCell id="GSLYbqBXelkynNaqKEPV-20" value="HTTPリクエストを受ける&lt;br&gt;&lt;br&gt;以下変数&lt;br&gt;&lt;br&gt;- 注文対象&lt;br&gt;- 取引方法(現物・先物等)&lt;br&gt;- 注文方法(成行・指値等)&lt;br&gt;- 価格&lt;br&gt;- 数量&lt;br&gt;- その他オプション&lt;br&gt;- 取引所" style="text;html=1;resizable=0;autosize=1;align=left;verticalAlign=middle;points=[];fillColor=none;strokeColor=none;rounded=0;labelBorderColor=#7EA6E0;" vertex="1" parent="1">
          <mxGeometry x="315.9999999999999" y="760" width="150" height="160" as="geometry" />
        </mxCell>
        <mxCell id="GSLYbqBXelkynNaqKEPV-22" value="注文を送信する&lt;br&gt;&lt;br&gt;- 注文送信後の処理&lt;br&gt;- エラーコードが返ってきた際の処理&lt;br&gt;- 注文が処理できない場合の処理" style="text;html=1;resizable=0;autosize=1;align=left;verticalAlign=middle;points=[];fillColor=none;strokeColor=none;rounded=0;labelBorderColor=#7EA6E0;" vertex="1" parent="1">
          <mxGeometry x="680" y="760" width="210" height="80" as="geometry" />
        </mxCell>
        <mxCell id="GSLYbqBXelkynNaqKEPV-23" value="情報の取得&lt;br&gt;&lt;br&gt;- 資産情報&lt;br&gt;- 現在の注文状況&lt;br&gt;&lt;br&gt;注文をチェックする&lt;br&gt;&lt;br&gt;- 取引所ごとの制限にかからないか&lt;br&gt;- 通貨ペアごとの制限にかからないか&lt;br&gt;- 残り資産の制限にかからないか&lt;br&gt;- API利用の制限にかからないか" style="text;html=1;resizable=0;autosize=1;align=left;verticalAlign=middle;points=[];fillColor=none;strokeColor=none;rounded=0;labelBorderColor=#7EA6E0;" vertex="1" parent="1">
          <mxGeometry x="470" y="760" width="210" height="160" as="geometry" />
        </mxCell>
      </root>
    </mxGraphModel>
  </diagram>
</mxfile>
